<?xml version="1.0" standalone="no"?>
<!DOCTYPE svg PUBLIC "-//W3C//DTD SVG 20010904//EN"
 "http://www.w3.org/TR/2001/REC-SVG-20010904/DTD/svg10.dtd">
<svg version="1.0" xmlns="http://www.w3.org/2000/svg"
 width="409.000000pt" height="409.000000pt" viewBox="0 0 409.000000 409.000000"
 preserveAspectRatio="xMidYMid meet">
<metadata>
Created by potrace 1.14, written by Peter Selinger 2001-2017
</metadata>
<g transform="translate(0.000000,409.000000) scale(0.100000,-0.100000)"
fill="#000000" stroke="none">
<path d="M2038 4004 c-2 -1 -50 -5 -108 -7 -58 -3 -105 -6 -105 -7 0 -1 -18
-3 -40 -5 -42 -5 -85 -11 -125 -20 -14 -3 -36 -7 -50 -10 -45 -8 -184 -45
-205 -54 -11 -5 -47 -19 -80 -32 -33 -12 -66 -27 -72 -32 -7 -5 -13 -6 -13 -3
0 4 -13 -2 -30 -14 -16 -12 -30 -19 -30 -16 0 8 -154 -74 -161 -86 -3 -5 -10
-9 -14 -7 -4 1 -14 -3 -24 -10 -122 -85 -149 -102 -164 -107 -9 -4 -17 -10
-17 -15 0 -5 -5 -9 -10 -9 -6 0 -26 -16 -45 -36 -19 -20 -35 -33 -35 -29 0 3
-44 -39 -97 -93 -95 -96 -155 -162 -148 -162 2 0 -6 -10 -18 -23 -35 -37 -57
-67 -50 -67 4 0 0 -6 -9 -12 -17 -13 -38 -48 -79 -125 -13 -24 -27 -43 -31
-43 -5 0 -6 -4 -3 -10 3 -5 1 -10 -4 -10 -6 0 -10 -3 -9 -7 1 -5 -5 -24 -14
-43 -44 -97 -96 -220 -93 -220 2 0 -3 -19 -11 -42 -9 -24 -17 -50 -19 -58 -12
-44 -35 -141 -40 -166 -38 -184 -40 -574 -4 -733 6 -25 13 -57 15 -71 3 -14
15 -56 26 -95 12 -38 23 -79 25 -90 2 -11 8 -24 13 -29 6 -6 10 -20 10 -33 0
-13 5 -23 10 -23 6 0 10 -11 10 -24 0 -13 5 -26 10 -28 6 -2 12 -12 14 -23 2
-11 18 -46 35 -77 16 -32 27 -58 23 -58 -4 0 -2 -4 4 -8 6 -4 25 -34 44 -67
39 -70 72 -119 83 -123 4 -2 7 -9 7 -16 0 -7 13 -25 30 -41 16 -16 30 -34 30
-40 0 -6 8 -18 17 -26 10 -9 38 -40 63 -69 25 -29 62 -69 83 -89 22 -20 56
-52 76 -71 21 -19 52 -46 71 -60 18 -14 41 -32 50 -40 52 -43 61 -50 66 -50 3
0 25 -13 49 -30 24 -16 48 -30 53 -30 6 0 12 -4 14 -9 2 -5 10 -11 18 -13 8
-2 23 -11 34 -20 10 -10 34 -22 53 -29 18 -6 33 -15 33 -20 0 -5 8 -9 18 -9
10 0 29 -8 42 -17 14 -10 25 -16 25 -15 0 4 29 -7 121 -43 34 -14 70 -26 80
-28 11 -2 30 -9 44 -14 58 -24 260 -65 323 -67 20 0 37 -4 37 -8 0 -8 439 -3
488 6 36 7 82 14 129 21 17 3 43 9 57 15 14 5 26 7 26 4 0 -4 6 -1 13 5 8 6
17 8 20 4 4 -3 13 0 22 7 8 7 15 10 15 6 0 -3 12 -1 28 5 15 6 34 12 42 14 17
3 144 50 175 64 101 46 141 67 147 76 4 5 8 6 8 1 0 -5 9 -1 20 9 11 10 20 14
20 10 0 -5 7 0 15 11 8 10 15 15 15 10 0 -4 15 3 34 17 18 15 36 23 40 20 3
-4 6 -2 6 4 0 5 22 24 50 42 27 18 50 37 50 43 0 6 3 8 6 5 8 -7 83 53 163
130 30 29 58 53 63 53 4 0 8 4 8 9 0 5 17 26 38 48 50 53 82 92 82 99 0 4 10
15 22 25 11 11 18 19 15 19 -3 0 5 12 18 26 14 15 22 31 18 37 -3 5 -1 7 4 4
9 -6 24 15 24 33 0 3 7 9 15 13 8 4 14 14 14 22 0 7 3 15 8 17 15 6 53 88 46
100 -4 6 -3 8 4 4 11 -7 82 130 82 159 0 8 4 15 9 15 11 0 32 56 24 64 -4 3
-2 6 4 6 8 0 22 40 23 65 0 3 7 19 15 35 9 17 13 30 10 30 -3 0 -1 8 4 18 5 9
11 31 14 47 6 29 16 79 21 100 12 48 25 144 31 220 5 74 6 289 0 330 -2 17 -6
53 -10 80 -18 146 -75 386 -96 410 -5 5 -9 16 -9 25 0 9 -12 41 -26 70 -27 57
-40 88 -44 105 -1 6 -7 17 -14 25 -7 8 -27 44 -46 80 -43 84 -88 150 -102 150
-6 0 -8 3 -5 6 3 4 -3 18 -14 33 -59 76 -89 111 -135 158 -28 29 -49 55 -46
58 3 3 1 5 -5 5 -6 0 -41 29 -78 65 -37 35 -86 77 -109 92 -23 15 -52 38 -66
51 -14 12 -33 25 -42 28 -10 3 -18 10 -18 15 0 5 -7 9 -15 9 -8 0 -15 4 -15 8
0 5 -16 14 -35 22 -19 8 -35 17 -35 20 0 4 -20 15 -45 26 -25 10 -45 22 -45
27 0 4 -4 5 -10 2 -5 -3 -10 -1 -10 4 0 6 -7 11 -15 11 -8 0 -29 9 -47 19 -17
11 -35 18 -39 16 -4 -3 -12 2 -19 10 -7 8 -20 15 -29 15 -9 0 -22 5 -29 12 -7
7 -12 8 -12 4 0 -5 -11 -1 -25 8 -14 9 -25 14 -25 11 0 -2 -22 4 -50 15 -27
11 -50 17 -50 14 0 -4 -6 -2 -12 3 -7 6 -31 14 -53 18 -22 5 -47 10 -55 12 -8
2 -26 6 -40 8 -14 1 -25 4 -25 5 0 2 -37 9 -77 13 -21 2 -41 6 -44 10 -4 3
-15 2 -25 -3 -10 -6 -20 -6 -23 -2 -3 4 -44 9 -93 11 -48 1 -100 3 -115 5 -15
2 -29 2 -30 0z"/>
</g>
</svg>
